<?xml version="1.0" standalone="no"?>
<!DOCTYPE svg PUBLIC "-//W3C//DTD SVG 20010904//EN"
 "http://www.w3.org/TR/2001/REC-SVG-20010904/DTD/svg10.dtd">
<svg version="1.0" xmlns="http://www.w3.org/2000/svg"
 width="24" height="24" viewBox="0 0 256 256"
 preserveAspectRatio="xMidYMid meet">
<metadata>
Created by potrace 1.16, written by Peter Selinger 2001-2019
</metadata>
<g transform="translate(0.000000,256.000000) scale(0.100000,-0.100000)"
fill="currentColor" stroke="none">
<path d="M942 2165 c-11 -14 -48 -96 -82 -182 -34 -87 -66 -169 -71 -181 -7
-18 -14 -22 -27 -17 -124 52 -425 146 -447 141 -56 -14 -53 -41 19 -208 66
-153 66 -153 44 -171 -332 -267 -333 -272 -107 -349 73 -24 134 -49 136 -55 2
-6 -30 -62 -72 -124 -80 -120 -85 -141 -45 -170 25 -19 47 -17 118 5 24 8 24
8 22 -96 -3 -144 -3 -146 26 -164 31 -21 37 -19 230 97 74 45 137 79 138 77 1
-1 22 -78 46 -170 49 -192 66 -228 108 -228 40 0 50 13 146 207 47 95 89 173
92 173 3 0 17 -9 31 -20 42 -33 77 -25 222 51 205 108 202 98 106 289 -36 71
-65 132 -65 135 0 3 141 4 313 3 l312 -3 3 -140 3 -139 174 174 c96 96 175
179 175 185 -1 5 -79 89 -175 185 l-175 174 0 -141 0 -142 -342 -3 c-189 -2
-347 0 -352 4 -5 4 37 60 93 125 147 170 150 159 -58 316 -164 123 -170 125
-253 66 -58 -40 -58 -40 -67 -17 -134 343 -163 385 -219 313z m90 -300 c46
-106 46 -106 7 -132 -37 -24 -42 -25 -82 -13 -69 20 -69 20 -26 128 21 53 39
103 39 110 0 32 20 3 62 -93z m380 -156 c51 -39 93 -75 93 -79 0 -12 -278
-330 -288 -330 -11 0 -1 30 39 117 42 91 42 102 -2 213 -20 50 -35 92 -33 94
19 15 85 56 91 56 4 0 49 -32 100 -71z m-834 17 c153 -50 157 -53 106 -61 -22
-4 -69 -13 -106 -21 -37 -8 -70 -14 -73 -14 -5 0 -65 125 -65 136 0 6 -7 8
138 -40z m290 -108 c-6 -18 -28 -21 -28 -4 0 9 7 16 16 16 9 0 14 -5 12 -12z
m296 -98 c5 -5 1 -27 -9 -52 -9 -24 -21 -53 -26 -66 -8 -22 -12 -20 -93 45
-99 79 -96 73 -50 106 36 25 138 6 178 -33z m-419 21 c3 -5 -16 -27 -41 -48
-26 -21 -64 -53 -84 -70 -47 -41 -47 -41 -53 5 -3 20 -8 49 -12 64 -7 25 -5
27 57 41 74 18 125 21 133 8z m-286 -140 c14 -54 6 -141 -13 -141 -18 1 -151
57 -151 64 0 7 136 124 146 125 3 1 11 -21 18 -48z m451 3 c30 -24 76 -61 103
-81 53 -42 55 -49 28 -102 -21 -40 -86 -77 -156 -88 -32 -5 -33 -4 -94 103
-35 60 -63 112 -64 116 -2 9 104 97 118 97 6 0 35 -20 65 -45z m-246 -175 c32
-48 29 -56 -16 -39 -47 19 -50 24 -37 53 16 36 22 34 53 -14z m780 -155 c37
-75 64 -139 60 -144 -25 -22 -196 -101 -209 -96 -26 10 -27 32 -6 75 23 45 51
163 51 216 0 37 15 85 27 85 5 0 39 -61 77 -136z m-227 3 c-12 -139 -28 -155
-97 -102 -69 53 -67 49 -36 86 13 15 26 32 28 37 3 9 84 49 102 51 5 1 6 -31
3 -72z m-537 -18 c0 -8 -111 -42 -117 -35 -3 3 -3 20 1 39 6 34 6 34 61 18 30
-9 55 -19 55 -22z m339 -150 c55 -44 101 -83 101 -86 0 -13 -124 -243 -132
-243 -4 0 -8 13 -8 28 0 16 -6 48 -14 73 -8 24 -22 78 -31 119 -33 148 -45
149 -230 35 -166 -102 -157 -101 -153 -13 3 72 3 72 158 119 206 62 189 64
309 -32z"/>
</g>
</svg>
